#!OML:ASF E:\motion texture\Top Level 1\Subject 1\Session 1\male.ASF
:FULLY-SPECIFIED
:DEGREES
268
root -1.14568 18.2444 3.81419 435.275 -77.8112 -427.602
lowerback 0.529616 4.98653 13.7265
upperback -6.53457 6.99256 -3.6944
thorax -5.2422 2.65694 -11.9542
lowerneck -10.2151 -12.8872 -18.5775
upperneck 4.08763 -15.2058 7.16741
head 4.76577 -7.50535 3.75132
rclavicle -2.61402e-014 -2.8625e-014
rhumerus 88.3154 -33.9219 -63.662
rradius 16.5963
rwrist 31.4102
rhand 0.866497 -29.2898
rfingers 7.12502
rthumb 26.4201 -57.4687
lclavicle -2.61402e-014 -2.8625e-014
lhumerus -49.8215 7.42401 60.9357
lradius 50.3433
lwrist -15.094
lhand -9.52452 16.9912
lfingers 7.12502
lthumb 16.4415 46.3145
rfemur 0.450745 -3.64253 38.9235
rtibia 15.2133
rfoot -14.1633 -8.21194
rtoes 9.60219
lfemur -27.3636 -2.83101 -2.61328
ltibia 8.99571
lfoot -8.20535 2.42495
ltoes -17.8418
269
root -1.26512 18.232 3.8166 436.963 -77.8565 -429.2
lowerback 0.336282 5.00485 13.641
upperback -6.55492 6.98389 -3.68469
thorax -5.16428 2.66206 -11.8732
lowerneck -9.94374 -12.9925 -18.7566
upperneck 3.70248 -15.4104 7.66408
head 4.68315 -7.5839 3.92626
rclavicle -1.6201e-014 9.54166e-015
rhumerus 87.9682 -33.7296 -64.5109
rradius 16.2354
rwrist 33.3173
rhand 1.04893 -29.3226
rfingers 7.12502
rthumb 26.5947 -57.4751
lclavicle -1.6201e-014 9.54166e-015
lhumerus -49.7602 7.44676 60.8677
lradius 50.7092
lwrist -14.8479
lhand -9.63709 17.1834
lfingers 7.12502
lthumb 16.3331 46.5156
rfemur 0.700827 -3.55071 38.9278
rtibia 15.4341
rfoot -14.2294 -7.8596
rtoes 9.09363
lfemur -27.6719 -2.70755 -2.53272
ltibia 8.87851
lfoot -8.30762 2.55558
ltoes -17.9696
270
root -1.38505 18.2183 3.82018 438.63 -77.8914 -430.801
lowerback 0.168398 5.02505 13.5422
upperback -6.56202 6.98142 -3.66896
thorax -5.08644 2.67203 -11.7796
lowerneck -9.69189 -13.1104 -18.9595
upperneck 3.34068 -15.6243 8.16228
head 4.61593 -7.66882 4.10145
rclavicle 5.06901e-014 -4.13472e-014
rhumerus 86.468 -33.6711 -63.566
rradius 16.3504
rwrist 33.6314
rhand 0.993876 -29.3055
rfingers 7.12502
rthumb 26.542 -57.466
lclavicle 5.06901e-014 -4.13472e-014
lhumerus -49.6742 7.46698 60.8174
lradius 51.017
lwrist -14.6137
lhand -9.754 17.4035
lfingers 7.12502
lthumb 16.2205 46.7449
rfemur 0.956112 -3.47725 38.9151
rtibia 15.7013
rfoot -14.2997 -7.48028
rtoes 8.52779
lfemur -27.9981 -2.55864 -2.47516
ltibia 9.04084
lfoot -8.39836 2.74236
ltoes -18.0026
271
root -1.50551 18.2031 3.82427 440.317 -77.9045 -432.452
lowerback 0.0374013 5.04689 13.4395
upperback -6.55539 6.98725 -3.63997
thorax -5.01421 2.68715 -11.6721
lowerneck -9.46607 -13.2346 -19.181
upperneck 3.00212 -15.8377 8.64694
head 4.56216 -7.75551 4.27247
rclavicle -1.44119e-014 1.59028e-015
rhumerus 84.0701 -33.6334 -61.1966
rradius 16.8359
rwrist 32.6907
rhand 0.853589 -29.2381
rfingers 7.12502
rthumb 26.4077 -57.4188
lclavicle -1.44119e-014 1.59028e-015
lhumerus -49.5639 7.49452 60.7846
lradius 51.2623
lwrist -14.4107
lhand -9.87385 17.6334
lfingers 7.12502
lthumb 16.1051 46.9842
rfemur 1.21955 -3.40234 38.9053
rtibia 16.0157
rfoot -14.3666 -7.08726
rtoes 7.88169
lfemur -28.3154 -2.3888 -2.41464
ltibia 9.42792
lfoot -8.47293 2.98485
ltoes -17.9396
272
root -1.62672 18.1864 3.82906 442.051 -77.8987 -434.182
lowerback -0.0530065 5.07421 13.3391
upperback -6.5379 7.00719 -3.60024
thorax -4.95036 2.70955 -11.5574
lowerneck -9.25382 -13.3593 -19.4007
upperneck 2.67305 -16.0456 9.09179
head 4.51087 -7.842 4.43051
rclavicle 8.54774e-014 3.18055e-015
rhumerus 81.1115 -33.5083 -57.9351
rradius 17.5958
rwrist 30.9931
rhand 0.881805 -29.0756
rfingers 7.12502
rthumb 26.4347 -57.2522
lclavicle 8.54774e-014 3.18055e-015
lhumerus -49.4393 7.51834 60.7667
lradius 51.4491
lwrist -14.2493
lhand -9.98023 17.7873
lfingers 7.12502
lthumb 16.0027 47.1464
rfemur 1.48936 -3.3328 38.8932
rtibia 16.3879
rfoot -14.4293 -6.67411
rtoes 7.12841
lfemur -28.5939 -2.22411 -2.34291
ltibia 9.96586
lfoot -8.53958 3.27629
ltoes -17.7353
273
root -1.74885 18.1682 3.8347 443.889 -77.8739 -436.045
lowerback -0.102837 5.11129 13.2478
upperback -6.50947 7.04708 -3.55048
thorax -4.89257 2.74202 -11.44
lowerneck -9.08065 -13.4827 -19.5972
upperneck 2.36749 -16.2412 9.46499
head 4.4645 -7.92527 4.56212
rclavicle -6.61953e-014 1.27222e-014
rhumerus 77.92 -33.2357 -54.293
rradius 18.541
rwrist 28.9635
rhand 0.926846 -28.8622
rfingers 7.12502
rthumb 26.4778 -57.0324
lclavicle -6.61953e-014 1.27222e-014
lhumerus -49.3003 7.53665 60.7633
lradius 51.578
lwrist -14.1343
lhand -10.0693 17.8661
lfingers 7.12502
lthumb 15.9169 47.232
rfemur 1.76022 -3.26507 38.8781
rtibia 16.8244
rfoot -14.4901 -6.23775
rtoes 6.31323
lfemur -28.8167 -2.07691 -2.24708
ltibia 10.5975
lfoot -8.60664 3.58803
ltoes -17.438
274
root -1.87236 18.1487 3.84147 445.845 -77.8421 -438.051
lowerback -0.116448 5.15777 13.1611
upperback -6.47318 7.1053 -3.49591
thorax -4.84208 2.78353 -11.3229
lowerneck -8.92537 -13.5906 -19.7801
upperneck 2.05838 -16.4097 9.78811
head 4.41159 -7.99703 4.67935
rclavicle -2.80286e-014 1.74931e-014
rhumerus 74.6554 -32.7931 -50.5154
rradius 19.6253
rwrist 26.7646
rhand 0.964922 -28.6279
rfingers 7.12502
rthumb 26.5143 -56.7925
lclavicle -2.80286e-014 1.74931e-014
lhumerus -49.1601 7.54777 60.7656
lradius 51.6546
lwrist -14.0677
lhand -10.1369 17.8737
lfingers 7.12502
lthumb 15.8518 47.2448
rfemur 2.02862 -3.2047 38.8412
rtibia 17.3262
rfoot -14.5496 -5.77193
rtoes 5.46521
lfemur -28.9686 -1.97732 -2.13311
ltibia 11.2668
lfoot -8.66752 3.87958
ltoes -17.0936
275
root -1.99777 18.128 3.84953 447.95 -77.8099 -440.223
lowerback -0.104075 5.21866 13.0748
upperback -6.43362 7.18664 -3.44357
thorax -4.79634 2.8364 -11.2106
lowerneck -8.77623 -13.6816 -19.9287
upperneck 1.72903 -16.5529 10.0535
head 4.34261 -8.05816 4.7783
rclavicle 1.65985e-014 -1.74931e-014
rhumerus 71.4132 -32.1899 -46.7714
rradius 20.8295
rwrist 24.5565
rhand 0.950724 -28.3861
rfingers 7.12502
rthumb 26.5007 -56.5528
lclavicle 1.65985e-014 -1.74931e-014
lhumerus -49.0301 7.5375 60.77
lradius 51.691
lwrist -14.0505
lhand -10.1939 17.8517
lfingers 7.12502
lthumb 15.7969 47.2272
rfemur 2.2908 -3.14816 38.7714
rtibia 17.8872
rfoot -14.6013 -5.27774
rtoes 4.61619
lfemur -29.0432 -1.94217 -2.00264
ltibia 11.9297
lfoot -8.69862 4.09824
ltoes -16.7336
276
root -2.1256 18.1062 3.85915 450.216 -77.7851 -442.56
lowerback -0.0833073 5.29188 12.9828
upperback -6.39264 7.28525 -3.39823
thorax -4.74911 2.89823 -11.1032
lowerneck -8.65013 -13.751 -20.0471
upperneck 1.39973 -16.6616 10.2662
head 4.26567 -8.10375 4.8608
rclavicle -1.799e-014 -6.04305e-014
rhumerus 68.2369 -31.4312 -43.1303
rradius 22.1557
rwrist 22.4035
rhand 0.753962 -28.2038
rfingers 7.12502
rthumb 26.3123 -56.3988
lclavicle -1.799e-014 -6.04305e-014
lhumerus -48.9144 7.5258 60.7624
lradius 51.6855
lwrist -14.0894
lhand -10.2432 17.8171
lfingers 7.12502
lthumb 15.7494 47.1963
rfemur 2.53712 -3.09486 38.6545
rtibia 18.5067
rfoot -14.6438 -4.75466
rtoes 3.76406
lfemur -29.0553 -1.9648 -1.87547
ltibia 12.5849
lfoot -8.66139 4.18484
ltoes -16.3991
277
root -2.25655 18.0837 3.87035 452.603 -77.7709 -445.022
lowerback -0.0647561 5.37452 12.8782
upperback -6.35426 7.39525 -3.36537
thorax -4.70045 2.96595 -11.002
lowerneck -8.53083 -13.7936 -20.1311
upperneck 1.069 -16.7338 10.4374
head 4.178 -8.13269 4.93114
rclavicle -1.01181e-013 4.77083e-015
rhumerus 65.1261 -30.5208 -39.6125
rradius 23.6104
rwrist 20.3547
rhand 0.417518 -28.0508
rfingers 7.12502
rthumb 25.9902 -56.2935
lclavicle -1.01181e-013 4.77083e-015
lhumerus -48.8301 7.5051 60.7334
lradius 51.6521
lwrist -14.1765
lhand -10.2781 17.7881
lfingers 7.12502
lthumb 15.7158 47.1699
rfemur 2.76936 -3.04237 38.4843
rtibia 19.1778
rfoot -14.6725 -4.21243
rtoes 2.91194
lfemur -29.0144 -2.02051 -1.77889
ltibia 13.2443
lfoot -8.45608 4.10872
ltoes -16.0903
